<svg xmlns="http://www.w3.org/2000/svg" viewBox="0 0 512 512" role="img" aria-labelledby="title desc">
  <title id="title">ChatGPT 订阅教程</title>
  <desc id="desc">ChatGPT 订阅教程启动台图标</desc>
  <defs><linearGradient id="bg" x1="0" y1="0" x2="1" y2="1"><stop offset="0" stop-color="#6b7cff"/><stop offset="1" stop-color="#b68be8"/></linearGradient></defs>
  <rect width="512" height="512" rx="112" fill="url(#bg)"/>
  <path d="M159 181c24-43 82-58 125-32l43 26c31 19 41 60 22 91l-24 39c-19 31-60 41-91 22l-41-25c-33-20-44-63-24-96l15-25c4-7 3-14-2-20l-23-26z" fill="none" stroke="#fff" stroke-linecap="round" stroke-linejoin="round" stroke-width="24"/>
  <path d="M205 155l-9 53 52 31 50-30 51 31m-101 0v61m-52-31l52 31 51-31" fill="none" stroke="#fff" stroke-linecap="round" stroke-linejoin="round" stroke-width="24"/>
</svg>
